<svg xmlns="http://www.w3.org/2000/svg" xmlns:xlink="http://www.w3.org/1999/xlink" width="20" height="20" viewBox="0 0 20 20">
  <defs>
    <clipPath id="clip-path">
      <rect id="Rectangle_28" data-name="Rectangle 28" width="20" height="20" transform="translate(11 601)" fill="#16caea" stroke="#16caea" stroke-width="1"/>
    </clipPath>
  </defs>
  <g id="Selected_home" transform="translate(-11 -601)" clip-path="url(#clip-path)">
    <path id="home" d="M11.334,2.011a3.649,3.649,0,0,0-1.946,0,3.762,3.762,0,0,0-1.125.575c-.465.319-1.018.761-1.791,1.38L4.755,5.34A8.817,8.817,0,0,0,3.114,6.821a3.649,3.649,0,0,0-.563,1.172A8.794,8.794,0,0,0,2.419,10.2v4.426a3.649,3.649,0,0,0,3.649,3.649A1.074,1.074,0,0,0,7.141,17.2V13.768a3.22,3.22,0,1,1,6.439,0V17.2a1.074,1.074,0,0,0,1.073,1.073A3.649,3.649,0,0,0,18.3,14.626V10.2a8.778,8.778,0,0,0-.131-2.207,3.649,3.649,0,0,0-.563-1.173A8.817,8.817,0,0,0,15.967,5.34L14.25,3.966c-.773-.618-1.326-1.06-1.791-1.38a3.762,3.762,0,0,0-1.125-.575ZM9.045.77a4.937,4.937,0,0,1,2.632,0,5.009,5.009,0,0,1,1.51.756c.508.349,1.1.82,1.847,1.419l.02.015,1.717,1.374.077.062a9.4,9.4,0,0,1,1.8,1.669,4.966,4.966,0,0,1,.762,1.587,9.409,9.409,0,0,1,.177,2.45v4.525a4.937,4.937,0,0,1-4.937,4.937A2.361,2.361,0,0,1,12.293,17.2V13.768a1.932,1.932,0,1,0-3.864,0V17.2a2.361,2.361,0,0,1-2.361,2.361,4.937,4.937,0,0,1-4.937-4.937V10.1a9.413,9.413,0,0,1,.177-2.45,4.937,4.937,0,0,1,.762-1.587A9.4,9.4,0,0,1,3.874,4.4l.077-.062L5.668,2.96l.02-.015c.749-.6,1.339-1.071,1.847-1.42A5.025,5.025,0,0,1,9.045.77Z" transform="translate(10.639 600.923)" fill="#16caea" stroke="#16caea" stroke-width="0.5" fill-rule="evenodd"/>
  </g>
</svg>
