<svg xmlns="http://www.w3.org/2000/svg" width="20" height="20" viewBox="0 0 20 20">
  <g id="unselected_report" transform="translate(-53 -601)">
    <g id="report-search" transform="translate(53 601)">
      <path id="Path_25" data-name="Path 25" d="M0,0H20V20H0Z" fill="none"/>
      <path id="Path_26" data-name="Path 26" d="M6.667,4.167H5A1.667,1.667,0,0,0,3.333,5.833v10A1.667,1.667,0,0,0,5,17.5H9.748" fill="none" stroke="#cdcdcd" stroke-linecap="round" stroke-linejoin="round" stroke-width="1.667"/>
      <path id="Path_27" data-name="Path 27" d="M15,10V5.833a1.667,1.667,0,0,0-1.667-1.667H11.667" fill="none" stroke="#cdcdcd" stroke-linecap="round" stroke-linejoin="round" stroke-width="1.667"/>
      <rect id="Rectangle_32" data-name="Rectangle 32" width="5" height="3.333" rx="1.667" transform="translate(6.667 2.5)" fill="none" stroke="#cdcdcd" stroke-linecap="round" stroke-linejoin="round" stroke-width="1.667"/>
      <path id="Path_28" data-name="Path 28" d="M6.667,9.167H10" fill="none" stroke="#cdcdcd" stroke-linecap="round" stroke-linejoin="round" stroke-width="1.667"/>
      <path id="Path_29" data-name="Path 29" d="M6.667,12.5h2.5" fill="none" stroke="#cdcdcd" stroke-linecap="round" stroke-linejoin="round" stroke-width="1.667"/>
      <circle id="Ellipse_10" data-name="Ellipse 10" cx="2.083" cy="2.083" r="2.083" transform="translate(11.667 12.5)" fill="none" stroke="#cdcdcd" stroke-linecap="round" stroke-linejoin="round" stroke-width="1.667"/>
      <path id="Path_30" data-name="Path 30" d="M15.417,16.25,17.5,18.333" fill="none" stroke="#cdcdcd" stroke-linecap="round" stroke-linejoin="round" stroke-width="1.667"/>
    </g>
  </g>
</svg>
